#!OML:ASF H:\ManfredETheater\Project 1\Capture day 1\Session 1\subject.ASF
:FULLY-SPECIFIED
:DEGREES
78
root 3.58705 16.1838 -7.69879 -157.429 -7.58691 -174.073
lowerback 14.5204 1.49008 7.04928
upperback -0.178221 3.14919 2.2227
thorax -8.10277 1.18772 -2.24421
lowerneck -24.0595 -4.5539 -3.89063
upperneck -0.19843 -6.01843 2.50276
head 3.79558 -3.22376 0.783894
rclavicle -8.74653e-015 -3.57812e-014
rhumerus -32.3258 20.0921 -88.9524
rradius 116.353
rwrist -10.7303
rhand -22.1941 9.50775
rfingers 7.12502
rthumb 4.22134 -20.4302
lclavicle -8.74653e-015 -3.57812e-014
lhumerus -82.0147 -2.04422 91.3488
lradius 109.706
lwrist 13.9312
lhand -20.6849 -13.3143
lfingers 7.12502
lthumb 5.6786 16.5896
rfemur 10.0777 0.488317 35.2874
rtibia 40.4256
rfoot 23.6415 -12.5787
rtoes -20.7417
lfemur -75.3955 2.29721 -24.966
ltibia 53.1184
lfoot -7.27561 -14.3659
ltoes 21.5914
79
root 3.64242 16.1895 -8.39795 -157.696 -7.98903 -174.574
lowerback 14.9047 1.39968 6.39998
upperback -0.056174 2.94556 2.16476
thorax -8.23272 1.11486 -1.91415
lowerneck -23.7888 -4.54385 -3.91331
upperneck -0.632716 -6.04281 2.67368
head 3.62892 -3.23999 0.850235
rclavicle -1.74931e-014 -4.37326e-015
rhumerus -33.1756 18.6356 -89.4307
rradius 112.689
rwrist -10.6654
rhand -22.1848 8.58944
rfingers 7.12502
rthumb 4.23035 -21.3483
lclavicle -1.74931e-014 -4.37326e-015
lhumerus -79.879 -1.18514 91.938
lradius 109.439
lwrist 13.242
lhand -21.0725 -13.2171
lfingers 7.12502
lthumb 5.30432 16.6965
rfemur 8.14374 -0.762812 34.8009
rtibia 46.1783
rfoot 23.2997 -13.7764
rtoes -19.2024
lfemur -74.3197 2.39616 -26.0155
ltibia 53.2605
lfoot -6.87942 -14.2783
ltoes 21.9905
80
root 3.69608 16.1933 -9.09656 -158.062 -8.30125 -175.211
lowerback 15.4059 1.31791 5.59295
upperback 0.0959553 2.72429 2.08153
thorax -8.39857 1.03865 -1.519
lowerneck -23.4626 -4.51246 -3.9181
upperneck -1.08168 -6.04089 2.79961
head 3.44775 -3.2464 0.903685
rclavicle -8.34896e-015 3.06128e-014
rhumerus -34.0392 17.0691 -89.8564
rradius 108.799
rwrist -11.0987
rhand -22.3681 7.74016
rfingers 7.12502
rthumb 4.05335 -22.201
lclavicle -8.34896e-015 3.06128e-014
lhumerus -77.4657 -0.519545 92.7442
lradius 108.998
lwrist 13.0194
lhand -21.4211 -13.1253
lfingers 7.12502
lthumb 4.96774 16.7965
rfemur 6.13343 -2.09093 34.0269
rtibia 51.9873
rfoot 22.9869 -14.3815
rtoes -17.667
lfemur -73.0805 2.42208 -26.8723
ltibia 54.2828
lfoot -7.12665 -14.1369
ltoes 21.9344
81
root 3.74741 16.1921 -9.7938 -158.522 -8.55259 -176.048
lowerback 16.0293 1.23529 4.60321
upperback 0.277872 2.46104 1.95155
thorax -8.60241 0.948259 -1.06034
lowerneck -23.138 -4.4694 -3.89407
upperneck -1.48569 -6.02389 2.87446
head 3.27832 -3.24678 0.937482
rclavicle 3.97569e-016 1.63003e-014
rhumerus -34.8799 15.4051 -90.2076
rradius 104.709
rwrist -11.9733
rhand -22.7371 6.98022
rfingers 7.12502
rthumb 3.69695 -22.9675
lclavicle 3.97569e-016 1.63003e-014
lhumerus -74.7844 -0.0918415 93.7389
lradius 108.399
lwrist 13.281
lhand -21.6627 -13.0856
lfingers 7.12502
lthumb 4.73448 16.8415
rfemur 4.06453 -3.48927 32.9143
rtibia 57.8348
rfoot 22.4109 -14.3489
rtoes -16.3469
lfemur -71.6254 2.28918 -27.5871
ltibia 55.999
lfoot -8.10583 -13.8293
ltoes 21.4606
82
root 3.79595 16.1893 -10.4899 -159.002 -8.74543 -177.125
lowerback 16.7154 1.15973 3.41078
upperback 0.467154 2.15199 1.75672
thorax -8.83145 0.843315 -0.541387
lowerneck -22.8568 -4.42811 -3.86882
upperneck -1.79757 -6.00049 2.93266
head 3.14316 -3.24151 0.964238
rclavicle -3.18055e-014 -2.0276e-014
rhumerus -35.6979 13.6418 -90.4763
rradius 100.469
rwrist -13.1516
rhand -23.275 6.34675
rfingers 7.12502
rthumb 3.17751 -23.6093
lclavicle -3.18055e-014 -2.0276e-014
lhumerus -71.8565 0.0535307 94.8876
lradius 107.654
lwrist 13.9469
lhand -21.7768 -13.0938
lfingers 7.12502
lthumb 4.62427 16.8357
rfemur 1.88485 -4.92344 31.4231
rtibia 63.6638
rfoot 21.3911 -13.7259
rtoes -15.6263
lfemur -69.9263 1.99025 -28.2839
ltibia 58.1104
lfoot -9.75268 -13.3693
ltoes 20.8705
83
root 3.841 16.1678 -11.1787 -159.455 -8.91145 -178.423
lowerback 17.4193 1.0893 2.06782
upperback 0.644412 1.79553 1.49918
thorax -9.07563 0.721078 0.0142155
lowerneck -22.6432 -4.40271 -3.85238
upperneck -1.98895 -5.98526 2.98656
head 3.05535 -3.23596 0.987056
rclavicle -2.5842e-014 7.95139e-016
rhumerus -36.5238 11.776 -90.6487
rradius 96.1561
rwrist -14.4082
rhand -23.9232 5.87381
rfingers 7.12502
rthumb 2.55157 -24.0907
lclavicle -2.5842e-014 7.95139e-016
lhumerus -68.7068 -0.136156 96.1511
lradius 106.774
lwrist 14.8743
lhand -21.7722 -13.1896
lfingers 7.12502
lthumb 4.6287 16.7399
rfemur -0.449816 -6.39712 29.5868
rtibia 69.473
rfoot 19.8277 -12.6281
rtoes -15.6244
lfemur -68.0588 1.50366 -29.0309
ltibia 60.3886
lfoot -11.8857 -12.7087
ltoes 20.3082
